STARTFONT 2.3
FONT -FontForge-Satisfy-Book-R-Normal--11-110-72-72-P-47-ISO10646-1
SIZE 11 72 72  4
FONTBOUNDINGBOX 14 17 -3 -6
COMMENT "Generated by fontforge, http://fontforge.sourceforge.net"
COMMENT "Copyright (c) 2011 by Font Diner, Inc. All rights reserved."
STARTPROPERTIES 40
FOUNDRY "FontForge"
FAMILY_NAME "Satisfy"
WEIGHT_NAME "Book"
SLANT "R"
SETWIDTH_NAME "Normal"
ADD_STYLE_NAME ""
PIXEL_SIZE 11
POINT_SIZE 110
RESOLUTION_X 72
RESOLUTION_Y 72
SPACING "P"
AVERAGE_WIDTH 47
CHARSET_REGISTRY "ISO10646"
CHARSET_ENCODING "1"
FONTNAME_REGISTRY ""
CHARSET_COLLECTIONS "ISO10646-1"
BITS_PER_PIXEL 4
FONT_NAME "Satisfy-Regular"
FACE_NAME "Satisfy Regular"
COPYRIGHT "Copyright (c) 2011 by Font Diner, Inc. All rights reserved."
FONT_VERSION "1.001"
FONT_ASCENT 9
FONT_DESCENT 2
UNDERLINE_POSITION -1
UNDERLINE_THICKNESS 1
X_HEIGHT 4
CAP_HEIGHT 8
RAW_ASCENT 799
RAW_DESCENT 200
NORM_SPACE 3
RELATIVE_WEIGHT 40
RELATIVE_SETWIDTH 50
SUPERSCRIPT_X 0
SUPERSCRIPT_Y 5
SUPERSCRIPT_SIZE 7
SUBSCRIPT_X 0
SUBSCRIPT_Y 1
SUBSCRIPT_SIZE 7
AVG_LOWERCASE_WIDTH 44
AVG_UPPERCASE_WIDTH 61
ENDPROPERTIES
CHARS 227
STARTCHAR space
ENCODING 32
SWIDTH 280 0
DWIDTH 3 0
BBX 1 1 0 0
BITMAP
00
ENDCHAR
STARTCHAR exclam
ENCODING 33
SWIDTH 249 0
DWIDTH 3 0
BBX 4 10 -1 -1
BITMAP
0001
004C
0088
00B4
00E1
03B0
0670
0410
1B20
0300
ENDCHAR
STARTCHAR quotedbl
ENCODING 34
SWIDTH 249 0
DWIDTH 3 0
BBX 4 4 0 4
BITMAP
0C66
39A2
75C0
1020
ENDCHAR
STARTCHAR numbersign
ENCODING 35
SWIDTH 417 0
DWIDTH 5 0
BBX 6 6 -1 1
BITMAP
001854
038AC5
05C5B3
18DBC3
177B20
062800
ENDCHAR
STARTCHAR dollar
ENCODING 36
SWIDTH 292 0
DWIDTH 3 0
BBX 5 9 -1 -1
BITMAP
000900
01A760
056380
03A100
00B200
245700
498400
083000
010000
ENDCHAR
STARTCHAR percent
ENCODING 37
SWIDTH 574 0
DWIDTH 6 0
BBX 7 9 0 -1
BITMAP
09A10A20
65738500
82A48000
4A6A0000
00948400
048A2A00
1B1A1A00
A50BA400
20011000
ENDCHAR
STARTCHAR ampersand
ENCODING 38
SWIDTH 460 0
DWIDTH 5 0
BBX 6 10 -1 -1
BITMAP
000020
000777
001A83
004E70
009B00
08CB00
3C2E00
860E65
4D8D90
023360
ENDCHAR
STARTCHAR quotesingle
ENCODING 39
SWIDTH 113 0
DWIDTH 1 0
BBX 2 4 0 4
BITMAP
0C
39
75
10
ENDCHAR
STARTCHAR parenleft
ENCODING 40
SWIDTH 234 0
DWIDTH 3 0
BBX 4 10 0 -1
BITMAP
0055
02A0
0930
1B00
5800
8500
B200
C100
B100
7300
ENDCHAR
STARTCHAR parenright
ENCODING 41
SWIDTH 204 0
DWIDTH 2 0
BBX 5 11 -2 -2
BITMAP
000800
000A00
000A20
000C10
000D00
002A00
006600
00B100
048000
1A0000
100000
ENDCHAR
STARTCHAR asterisk
ENCODING 42
SWIDTH 327 0
DWIDTH 4 0
BBX 5 4 0 4
BITMAP
12B200
3BCB20
1BA300
054400
ENDCHAR
STARTCHAR plus
ENCODING 43
SWIDTH 350 0
DWIDTH 4 0
BBX 4 4 0 2
BITMAP
0280
49A4
7C73
0A00
ENDCHAR
STARTCHAR comma
ENCODING 44
SWIDTH 200 0
DWIDTH 2 0
BBX 2 3 -1 -2
BITMAP
2A
1A
11
ENDCHAR
STARTCHAR hyphen
ENCODING 45
SWIDTH 353 0
DWIDTH 4 0
BBX 5 1 -1 3
BITMAP
1BBB70
ENDCHAR
STARTCHAR period
ENCODING 46
SWIDTH 213 0
DWIDTH 2 0
BBX 3 2 -1 -1
BITMAP
2B10
1200
ENDCHAR
STARTCHAR slash
ENCODING 47
SWIDTH 262 0
DWIDTH 3 0
BBX 6 9 -1 -1
BITMAP
0000B1
000750
001B00
009300
029000
0A2000
490000
C20000
100000
ENDCHAR
STARTCHAR zero
ENCODING 48
SWIDTH 489 0
DWIDTH 5 0
BBX 5 10 0 -1
BITMAP
000100
009B50
0770B0
1D00C0
5900D0
9703B0
A50870
851D10
3CA400
021000
ENDCHAR
STARTCHAR one
ENCODING 49
SWIDTH 272 0
DWIDTH 3 0
BBX 3 9 0 -1
BITMAP
06A0
0890
0850
0B10
0C00
4900
8500
C400
1000
ENDCHAR
STARTCHAR two
ENCODING 50
SWIDTH 448 0
DWIDTH 5 0
BBX 6 10 -1 -1
BITMAP
000010
003898
00D14B
006087
0001C1
000A40
01B400
0B4000
3EDEA0
020010
ENDCHAR
STARTCHAR three
ENCODING 51
SWIDTH 462 0
DWIDTH 5 0
BBX 5 10 0 -1
BITMAP
000100
06BA70
1E02C0
080780
006A00
049A00
000A30
911D00
C9B400
132000
ENDCHAR
STARTCHAR four
ENCODING 52
SWIDTH 452 0
DWIDTH 5 0
BBX 5 9 0 -1
BITMAP
001B90
00A960
086920
790B00
DBBF50
105900
009600
00C500
002000
ENDCHAR
STARTCHAR five
ENCODING 53
SWIDTH 444 0
DWIDTH 5 0
BBX 6 9 0 -1
BITMAP
04CEE1
091040
0A0000
3BCC00
490A20
000A00
C13800
CEB100
130000
ENDCHAR
STARTCHAR six
ENCODING 54
SWIDTH 477 0
DWIDTH 5 0
BBX 5 9 0 -1
BITMAP
006A90
049490
0C2200
4DAA40
7E2580
960860
760C10
2C9500
022000
ENDCHAR
STARTCHAR seven
ENCODING 55
SWIDTH 406 0
DWIDTH 4 0
BBX 5 9 0 -1
BITMAP
1CDCC0
130480
001B10
009500
03C000
0A5000
2E0000
6B0000
010000
ENDCHAR
STARTCHAR eight
ENCODING 56
SWIDTH 444 0
DWIDTH 5 0
BBX 6 10 -1 -1
BITMAP
000010
001968
00851A
0097A4
005F50
02BA70
0B23C0
1B03B0
0C5B30
014100
ENDCHAR
STARTCHAR nine
ENCODING 57
SWIDTH 462 0
DWIDTH 5 0
BBX 5 10 0 -1
BITMAP
000100
02A940
0B30A0
2B03B0
580AA0
3B4C70
066B20
605900
ACB100
130000
ENDCHAR
STARTCHAR colon
ENCODING 58
SWIDTH 226 0
DWIDTH 3 0
BBX 3 4 -1 -1
BITMAP
0880
0000
2B10
1200
ENDCHAR
STARTCHAR semicolon
ENCODING 59
SWIDTH 212 0
DWIDTH 2 0
BBX 3 5 -1 -2
BITMAP
0A60
0000
2A00
1A00
1100
ENDCHAR
STARTCHAR less
ENCODING 60
SWIDTH 271 0
DWIDTH 3 0
BBX 4 5 0 1
BITMAP
0281
3C30
E200
8700
1A00
ENDCHAR
STARTCHAR equal
ENCODING 61
SWIDTH 374 0
DWIDTH 4 0
BBX 4 3 0 2
BITMAP
5BBA
6884
5431
ENDCHAR
STARTCHAR greater
ENCODING 62
SWIDTH 250 0
DWIDTH 3 0
BBX 4 5 -1 1
BITMAP
0460
00C2
0088
06A1
4700
ENDCHAR
STARTCHAR question
ENCODING 63
SWIDTH 413 0
DWIDTH 5 0
BBX 6 10 -1 -1
BITMAP
000110
00999A
04B00D
00203C
0004C2
01C710
05A000
053000
1A3000
040000
ENDCHAR
STARTCHAR at
ENCODING 64
SWIDTH 648 0
DWIDTH 7 0
BBX 8 8 -1 -1
BITMAP
00397780
03B27758
0B2A3E5A
39650A0B
38A2582A
1B5AB3A2
04945A40
00010000
ENDCHAR
STARTCHAR A
ENCODING 65
SWIDTH 552 0
DWIDTH 6 0
BBX 7 12 -1 -3
BITMAP
00000100
00009B60
00085560
002B0840
00950C10
00D10D00
05D88D20
6D959C10
1E208700
6D00A600
B600A800
00004400
ENDCHAR
STARTCHAR B
ENCODING 66
SWIDTH 607 0
DWIDTH 7 0
BBX 7 11 0 -2
BITMAP
00120000
06DA9A00
09E10C50
03B00E30
07606A00
0C89B100
1D74B400
5A006A00
97009900
D304E200
D9AA2000
ENDCHAR
STARTCHAR C
ENCODING 67
SWIDTH 548 0
DWIDTH 6 0
BBX 7 11 0 -2
BITMAP
00001000
004B8A00
03D10E10
0D404F00
4D006700
98000000
D5000000
F3000000
E3003000
A7037000
1BC80000
ENDCHAR
STARTCHAR D
ENCODING 68
SWIDTH 632 0
DWIDTH 7 0
BBX 7 11 0 -2
BITMAP
00010000
07DCC300
05503D10
04C00A60
07900980
09600A70
0D200D40
1D004D00
5900C500
A5098000
ABB50000
ENDCHAR
STARTCHAR E
ENCODING 69
SWIDTH 523 0
DWIDTH 6 0
BBX 7 11 -1 -2
BITMAP
00000100
00079880
009901D0
01F10990
02F10300
008A4000
03A65000
1D200000
4D000600
2F305600
06DC7000
ENDCHAR
STARTCHAR F
ENCODING 70
SWIDTH 585 0
DWIDTH 6 0
BBX 7 11 0 -2
BITMAP
00001000
07A99C20
6C100A30
3C501B00
00008500
08BBE900
03087000
001E1000
006B0000
00B70000
00C50000
ENDCHAR
STARTCHAR G
ENCODING 71
SWIDTH 612 0
DWIDTH 7 0
BBX 7 12 0 -3
BITMAP
00001000
001A8B00
01C30C10
08902E10
1E306800
6C000000
A919AB20
C6016700
C500B200
87058000
1B990000
00100000
ENDCHAR
STARTCHAR H
ENCODING 72
SWIDTH 649 0
DWIDTH 7 0
BBX 9 10 -1 -2
BITMAP
000B201C10
002D004C00
0069008700
009500C200
00D667E400
05D8A8B400
05A07B5000
09702F2000
0C401E0000
1E202A0000
ENDCHAR
STARTCHAR I
ENCODING 73
SWIDTH 537 0
DWIDTH 6 0
BBX 7 10 -1 -2
BITMAP
00008C40
0006A750
000C4A40
000C2E10
00095D00
00049B30
1AB7D620
A701C000
A7075000
1A980000
ENDCHAR
STARTCHAR J
ENCODING 74
SWIDTH 500 0
DWIDTH 6 0
BBX 8 11 -1 -3
BITMAP
0008CEC5
00000E10
00003C00
00007900
0000B600
08B0E200
5C23D000
B3088000
C01D1000
78A40000
01000000
ENDCHAR
STARTCHAR K
ENCODING 75
SWIDTH 497 0
DWIDTH 5 0
BBX 7 11 -1 -3
BITMAP
002D02C0
007806B0
00C30C40
01D08800
04A88000
0ADB7000
0C30D200
0E01E100
3D06A000
6A087000
0002B820
ENDCHAR
STARTCHAR L
ENCODING 76
SWIDTH 492 0
DWIDTH 5 0
BBX 7 11 -1 -3
BITMAP
00004DB0
0000D4B0
0003DB40
045AE500
015C5000
000D1000
002B0000
00850000
BDE20100
984CCB00
00002000
ENDCHAR
STARTCHAR M
ENCODING 77
SWIDTH 733 0
DWIDTH 8 0
BBX 10 10 -2 -2
BITMAP
00004E006D
0000AE11CC
0001CC0799
00059C0C76
00095D57B2
023D2CB1D0
0A1D1EA3B0
1A5A0E6690
1B96041990
0AD10006D1
ENDCHAR
STARTCHAR N
ENCODING 78
SWIDTH 541 0
DWIDTH 6 0
BBX 8 11 -1 -2
BITMAP
00000001
006800CB
00BA0599
00CB0AA6
038B2E50
075A0D00
0B2B2B00
0E0B5800
3C0AA500
6C08F100
5B03B000
ENDCHAR
STARTCHAR O
ENCODING 79
SWIDTH 567 0
DWIDTH 6 0
BBX 6 11 0 -2
BITMAP
000200
009DC3
05A168
0D205A
4B004A
970069
C40097
D200C3
D203C0
A40B40
3BA600
ENDCHAR
STARTCHAR P
ENCODING 80
SWIDTH 552 0
DWIDTH 6 0
BBX 8 11 -1 -2
BITMAP
00001100
007C7A90
059B00E2
005700D3
009403D0
00C11C40
02E7A300
05B10000
09700000
0E300000
4B000000
ENDCHAR
STARTCHAR Q
ENCODING 81
SWIDTH 583 0
DWIDTH 6 0
BBX 6 11 0 -2
BITMAP
000010
007BB4
07A01C
1E200E
6B000E
A7003C
A50078
6A00D3
0636A0
5BAF20
6CA4A6
ENDCHAR
STARTCHAR R
ENCODING 82
SWIDTH 560 0
DWIDTH 6 0
BBX 8 12 -1 -3
BITMAP
00001100
006C7AA0
039B00D3
003900C4
007502E1
00C31B50
06FDC400
04C2B000
0790C100
0B50B300
2C10A710
00003910
ENDCHAR
STARTCHAR S
ENCODING 83
SWIDTH 474 0
DWIDTH 5 0
BBX 7 12 -1 -3
BITMAP
00002100
003C8C20
01D20860
03D00C30
00E40100
005E2000
0008A000
0001D000
3900C000
7B057000
1DBA0000
00100000
ENDCHAR
STARTCHAR T
ENCODING 84
SWIDTH 423 0
DWIDTH 5 0
BBX 6 10 0 -2
BITMAP
7DDEB9
217900
00A400
00D100
02C000
068000
0A5000
0D2000
2F0000
5B0000
ENDCHAR
STARTCHAR U
ENCODING 85
SWIDTH 574 0
DWIDTH 6 0
BBX 7 10 0 -2
BITMAP
03C10890
08A00D40
0C502E00
1E106A00
5B009600
8700D200
B302E000
D207C000
D32CB000
7DA2B000
ENDCHAR
STARTCHAR V
ENCODING 86
SWIDTH 503 0
DWIDTH 6 0
BBX 7 10 0 -2
BITMAP
0A501D10
1E106A00
3B00C400
6802E000
76069000
760B4000
761D0000
57570000
2AA10000
0C700000
ENDCHAR
STARTCHAR W
ENCODING 87
SWIDTH 817 0
DWIDTH 9 0
BBX 9 11 0 -2
BITMAP
0000000010
03C11406C0
09609805C0
0E10D505A0
3B00E10770
7701D00A40
9405B00D10
A20B903A00
A22BA09400
84A3B2B000
3E60AC2000
ENDCHAR
STARTCHAR X
ENCODING 88
SWIDTH 579 0
DWIDTH 6 0
BBX 9 11 -1 -2
BITMAP
0010000000
03AB003D30
092B11D400
06CC4A6000
0046BB0000
0004E20000
0009900000
004CB00000
01D2C00000
0980B21300
3A004C8100
ENDCHAR
STARTCHAR Y
ENCODING 89
SWIDTH 532 0
DWIDTH 6 0
BBX 7 10 0 -2
BITMAP
07A00E20
0C403D00
1E006900
4A00B500
7701E100
9509C000
6DA78000
02084000
623B0000
AEB20000
ENDCHAR
STARTCHAR Z
ENCODING 90
SWIDTH 455 0
DWIDTH 5 0
BBX 7 10 -1 -2
BITMAP
00CEDD50
01300B50
00005C00
0002D200
001C5000
00A70000
06A00000
2C100000
A6564000
BBABA000
ENDCHAR
STARTCHAR bracketleft
ENCODING 91
SWIDTH 202 0
DWIDTH 2 0
BBX 5 12 -1 -2
BITMAP
000200
004D20
009300
00B000
02A000
066000
092000
0B0000
1A0000
470000
7B0000
130000
ENDCHAR
STARTCHAR backslash
ENCODING 92
SWIDTH 273 0
DWIDTH 3 0
BBX 3 9 0 -1
BITMAP
7500
6600
4800
1A00
0B00
0C00
0A30
0770
0110
ENDCHAR
STARTCHAR bracketright
ENCODING 93
SWIDTH 216 0
DWIDTH 2 0
BBX 4 12 -1 -2
BITMAP
0011
009A
0048
0074
00A1
00B0
0290
0660
0A20
0B00
A800
3100
ENDCHAR
STARTCHAR asciicircum
ENCODING 94
SWIDTH 287 0
DWIDTH 3 0
BBX 5 4 -1 4
BITMAP
004E10
00B930
076740
1B0660
ENDCHAR
STARTCHAR underscore
ENCODING 95
SWIDTH 439 0
DWIDTH 5 0
BBX 7 2 -2 -1
BITMAP
1BCCCB30
01100100
ENDCHAR
STARTCHAR grave
ENCODING 96
SWIDTH 567 0
DWIDTH 6 0
BBX 3 2 2 6
BITMAP
1600
0770
ENDCHAR
STARTCHAR a
ENCODING 97
SWIDTH 435 0
DWIDTH 5 0
BBX 7 6 -1 -1
BITMAP
00270000
02A94000
0B275040
1D0C2620
1EA99400
01001000
ENDCHAR
STARTCHAR b
ENCODING 98
SWIDTH 415 0
DWIDTH 5 0
BBX 6 9 0 -1
BITMAP
037000
0A8000
1F4000
6E0000
988754
B25A20
B09200
996000
020000
ENDCHAR
STARTCHAR c
ENCODING 99
SWIDTH 363 0
DWIDTH 4 0
BBX 6 6 -1 -1
BITMAP
005600
069C10
0D0404
1C0063
0B7840
013100
ENDCHAR
STARTCHAR d
ENCODING 100
SWIDTH 483 0
DWIDTH 5 0
BBX 8 9 -1 -1
BITMAP
00000810
00002F20
00005E00
00249A00
0487E300
0B03A031
1A095260
0D98A700
01002000
ENDCHAR
STARTCHAR e
ENCODING 101
SWIDTH 372 0
DWIDTH 4 0
BBX 5 6 0 -1
BITMAP
036000
39B100
C76040
E30540
B88400
130000
ENDCHAR
STARTCHAR f
ENCODING 102
SWIDTH 325 0
DWIDTH 4 0
BBX 6 14 -1 -6
BITMAP
004700
007900
008600
00B100
01B132
08B731
0E2000
0CB100
385700
752A00
A16700
C2C100
ED3000
100000
ENDCHAR
STARTCHAR g
ENCODING 103
SWIDTH 459 0
DWIDTH 5 0
BBX 7 11 -1 -6
BITMAP
00341000
0498C100
0B13B030
0C058640
0C9BB300
014E2000
058C0000
1B390000
29760000
0BD10000
02300000
ENDCHAR
STARTCHAR h
ENCODING 104
SWIDTH 465 0
DWIDTH 5 0
BBX 7 9 -1 -1
BITMAP
00440000
00A60000
00D20000
01C23000
05BAD000
0863B030
0C175440
1C09B400
02011000
ENDCHAR
STARTCHAR i
ENCODING 105
SWIDTH 274 0
DWIDTH 3 0
BBX 4 8 0 -1
BITMAP
0750
0100
0300
5900
A405
B163
9A40
0100
ENDCHAR
STARTCHAR j
ENCODING 106
SWIDTH 267 0
DWIDTH 3 0
BBX 7 13 -3 -5
BITMAP
00000100
00006700
00000000
00002000
0004B000
00086050
000C2720
000E8200
006B1000
06C70000
1AA30000
47C00000
1A600000
ENDCHAR
STARTCHAR k
ENCODING 107
SWIDTH 440 0
DWIDTH 5 0
BBX 7 9 -1 -1
BITMAP
00640000
00B40000
00D10000
02A23000
05A9B000
09893030
0A4C0620
290C9400
01032000
ENDCHAR
STARTCHAR l
ENCODING 108
SWIDTH 218 0
DWIDTH 2 0
BBX 4 9 -1 -1
BITMAP
0053
00B5
00D1
02C0
0690
0950
0D10
1C00
0200
ENDCHAR
STARTCHAR m
ENCODING 109
SWIDTH 717 0
DWIDTH 8 0
BBX 9 6 0 -1
BITMAP
0002020000
4B9E7D6000
7C0E495040
B43A0D2630
E0760E8500
2010022000
ENDCHAR
STARTCHAR n
ENCODING 110
SWIDTH 461 0
DWIDTH 5 0
BBX 7 6 -1 -1
BITMAP
00122000
05CAB000
0973A040
0C177440
1C09A600
01012000
ENDCHAR
STARTCHAR o
ENCODING 111
SWIDTH 393 0
DWIDTH 4 0
BBX 7 6 -1 -1
BITMAP
00420000
069A2120
0D889600
1A5E3000
0B880000
01200000
ENDCHAR
STARTCHAR p
ENCODING 112
SWIDTH 451 0
DWIDTH 5 0
BBX 8 10 -2 -5
BITMAP
00121200
005D9C00
00880B03
00B26753
00EFE940
04942100
07600000
0B300000
0E000000
17000000
ENDCHAR
STARTCHAR q
ENCODING 113
SWIDTH 462 0
DWIDTH 5 0
BBX 6 10 0 -5
BITMAP
013110
398D20
C22D00
E05903
D5C571
14A920
00D200
05A000
0A9000
058000
ENDCHAR
STARTCHAR r
ENCODING 114
SWIDTH 406 0
DWIDTH 4 0
BBX 7 6 -1 -1
BITMAP
02E10000
05EA1000
092B3220
273A1800
70799100
00140000
ENDCHAR
STARTCHAR s
ENCODING 115
SWIDTH 351 0
DWIDTH 4 0
BBX 3 6 0 -1
BITMAP
0860
1F30
7680
31D0
9980
1400
ENDCHAR
STARTCHAR t
ENCODING 116
SWIDTH 301 0
DWIDTH 3 0
BBX 6 9 -1 -1
BITMAP
002600
008A10
6AFA85
01F100
04B000
075031
090260
089800
003000
ENDCHAR
STARTCHAR u
ENCODING 117
SWIDTH 468 0
DWIDTH 5 0
BBX 6 6 0 -1
BITMAP
010100
771D00
C26A04
D08535
C9AB70
010100
ENDCHAR
STARTCHAR v
ENCODING 118
SWIDTH 427 0
DWIDTH 5 0
BBX 6 6 0 -1
BITMAP
110300
B33E01
D06B64
C1A200
9B2000
110000
ENDCHAR
STARTCHAR w
ENCODING 119
SWIDTH 646 0
DWIDTH 7 0
BBX 8 6 0 -1
BITMAP
02040200
864B1E10
C2752E66
C0916710
B769A000
12020000
ENDCHAR
STARTCHAR x
ENCODING 120
SWIDTH 399 0
DWIDTH 4 0
BBX 6 6 -1 -1
BITMAP
042040
058980
01E900
05E215
4A5B91
200200
ENDCHAR
STARTCHAR y
ENCODING 121
SWIDTH 406 0
DWIDTH 4 0
BBX 5 10 -1 -5
BITMAP
011020
0A61E0
0D14A0
1C0C50
1DAD10
022C00
003A00
007600
00B400
007100
ENDCHAR
STARTCHAR z
ENCODING 122
SWIDTH 448 0
DWIDTH 5 0
BBX 7 10 -1 -5
BITMAP
00255100
0097C100
00038000
002D4350
0076C600
0059A000
07675000
2A0C1000
58870000
1B800000
ENDCHAR
STARTCHAR braceleft
ENCODING 123
SWIDTH 243 0
DWIDTH 3 0
BBX 5 12 -1 -2
BITMAP
000010
002C60
008500
009200
009200
059000
056000
056000
0B1000
2A0000
1E5000
011000
ENDCHAR
STARTCHAR bar
ENCODING 124
SWIDTH 253 0
DWIDTH 3 0
BBX 3 9 0 -1
BITMAP
0390
0750
0A10
0B00
3900
6600
A300
D100
2000
ENDCHAR
STARTCHAR braceright
ENCODING 125
SWIDTH 243 0
DWIDTH 3 0
BBX 4 11 -1 -2
BITMAP
00C6
003B
0047
00A1
00B0
01B2
0730
0920
0A20
BA00
3000
ENDCHAR
STARTCHAR asciitilde
ENCODING 126
SWIDTH 329 0
DWIDTH 4 0
BBX 5 2 -1 3
BITMAP
066240
276950
ENDCHAR
STARTCHAR uni00A0
ENCODING 160
SWIDTH 280 0
DWIDTH 3 0
BBX 1 1 0 0
BITMAP
00
ENDCHAR
STARTCHAR exclamdown
ENCODING 161
SWIDTH 249 0
DWIDTH 3 0
BBX 4 9 -1 -1
BITMAP
005B
0012
00A3
00D0
03B0
0880
0C40
1F10
1300
ENDCHAR
STARTCHAR cent
ENCODING 162
SWIDTH 322 0
DWIDTH 4 0
BBX 4 8 0 0
BITMAP
0071
0686
4869
B153
B000
A020
9840
3600
ENDCHAR
STARTCHAR sterling
ENCODING 163
SWIDTH 318 0
DWIDTH 4 0
BBX 5 8 -1 0
BITMAP
000630
0092A0
019670
047000
0CB400
0B0000
4A7500
343300
ENDCHAR
STARTCHAR currency
ENCODING 164
SWIDTH 347 0
DWIDTH 4 0
BBX 4 4 0 2
BITMAP
4647
1A92
48B0
8473
ENDCHAR
STARTCHAR yen
ENCODING 165
SWIDTH 326 0
DWIDTH 4 0
BBX 5 8 0 0
BITMAP
020110
370A10
194600
0A9000
4C7000
7D5000
480000
210000
ENDCHAR
STARTCHAR brokenbar
ENCODING 166
SWIDTH 253 0
DWIDTH 3 0
BBX 3 9 0 -1
BITMAP
0390
0750
0B10
0600
2400
6600
A300
D100
2000
ENDCHAR
STARTCHAR section
ENCODING 167
SWIDTH 297 0
DWIDTH 3 0
BBX 5 10 -1 -1
BITMAP
000100
009490
029270
009300
077B00
0C0B00
04C200
165600
378400
022000
ENDCHAR
STARTCHAR dieresis
ENCODING 168
SWIDTH 567 0
DWIDTH 6 0
BBX 4 2 2 6
BITMAP
1120
6381
ENDCHAR
STARTCHAR copyright
ENCODING 169
SWIDTH 456 0
DWIDTH 5 0
BBX 6 6 0 2
BITMAP
058670
377A63
A46345
A64372
656570
047400
ENDCHAR
STARTCHAR ordfeminine
ENCODING 170
SWIDTH 373 0
DWIDTH 4 0
BBX 6 7 -1 -1
BITMAP
001200
039B00
0B1A00
2B3A24
1B6860
49A910
222100
ENDCHAR
STARTCHAR guillemotleft
ENCODING 171
SWIDTH 346 0
DWIDTH 4 0
BBX 5 6 -1 -1
BITMAP
002020
038830
2B7600
2A8400
073900
001100
ENDCHAR
STARTCHAR logicalnot
ENCODING 172
SWIDTH 512 0
DWIDTH 6 0
BBX 6 4 0 1
BITMAP
366652
7655A5
0000A1
000020
ENDCHAR
STARTCHAR sfthyphen
ENCODING 173
SWIDTH 353 0
DWIDTH 4 0
BBX 5 1 -1 3
BITMAP
1BBB70
ENDCHAR
STARTCHAR registered
ENCODING 174
SWIDTH 456 0
DWIDTH 5 0
BBX 6 6 0 2
BITMAP
058770
37A963
A1A845
A29572
671870
047400
ENDCHAR
STARTCHAR macron
ENCODING 175
SWIDTH 567 0
DWIDTH 6 0
BBX 3 2 2 6
BITMAP
1320
4880
ENDCHAR
STARTCHAR degree
ENCODING 176
SWIDTH 144 0
DWIDTH 2 0
BBX 3 2 0 6
BITMAP
0400
4A10
ENDCHAR
STARTCHAR twosuperior
ENCODING 178
SWIDTH 268 0
DWIDTH 3 0
BBX 4 6 0 3
BITMAP
0020
0A94
1592
0380
4900
BB80
ENDCHAR
STARTCHAR threesuperior
ENCODING 179
SWIDTH 262 0
DWIDTH 3 0
BBX 4 6 0 3
BITMAP
0010
1BA3
1692
07A0
30A0
9A50
ENDCHAR
STARTCHAR acute
ENCODING 180
SWIDTH 567 0
DWIDTH 6 0
BBX 3 2 2 6
BITMAP
0140
1A40
ENDCHAR
STARTCHAR mu
ENCODING 181
SWIDTH 453 0
DWIDTH 5 0
BBX 7 7 -2 -3
BITMAP
00927500
01C0C300
0590C060
08D9B930
0C100100
2A000000
10000000
ENDCHAR
STARTCHAR paragraph
ENCODING 182
SWIDTH 411 0
DWIDTH 5 0
BBX 6 9 0 -1
BITMAP
059DC3
5FF8A0
9FF660
4EE730
01A900
037900
075800
0B6400
021000
ENDCHAR
STARTCHAR periodcentered
ENCODING 183
SWIDTH 168 0
DWIDTH 2 0
BBX 2 2 0 3
BITMAP
11
A5
ENDCHAR
STARTCHAR cedilla
ENCODING 184
SWIDTH 567 0
DWIDTH 6 0
BBX 3 3 2 -2
BITMAP
0B10
06A0
1610
ENDCHAR
STARTCHAR onesuperior
ENCODING 185
SWIDTH 150 0
DWIDTH 2 0
BBX 2 5 0 3
BITMAP
0D
0A
28
64
82
ENDCHAR
STARTCHAR ordmasculine
ENCODING 186
SWIDTH 319 0
DWIDTH 4 0
BBX 5 7 -1 -1
BITMAP
001000
069810
0D6B70
197A00
099200
499400
321000
ENDCHAR
STARTCHAR guillemotright
ENCODING 187
SWIDTH 346 0
DWIDTH 4 0
BBX 5 6 -1 -1
BITMAP
022000
093700
058B20
086B10
569200
101000
ENDCHAR
STARTCHAR onequarter
ENCODING 188
SWIDTH 579 0
DWIDTH 6 0
BBX 7 9 -1 -1
BITMAP
00D10390
00A00B10
01808400
055384B0
083A2A90
0093C990
04903950
1C100B20
11000100
ENDCHAR
STARTCHAR onehalf
ENCODING 189
SWIDTH 603 0
DWIDTH 7 0
BBX 8 9 -1 -1
BITMAP
00C102A0
00A00A20
01907500
046397A4
074B1784
008402A0
03902A10
1C10BB80
11001010
ENDCHAR
STARTCHAR threequarters
ENCODING 190
SWIDTH 669 0
DWIDTH 7 0
BBX 7 10 0 -1
BITMAP
00100000
1BA303A0
16920B10
07A08400
30A384B0
9A6A2A90
0093D980
04803950
1C100B20
11000100
ENDCHAR
STARTCHAR questiondown
ENCODING 191
SWIDTH 413 0
DWIDTH 5 0
BBX 6 10 -1 -1
BITMAP
000001
0000A7
000051
0001D0
002890
05B400
2C0000
7702C0
5B5B70
024200
ENDCHAR
STARTCHAR Agrave
ENCODING 192
SWIDTH 552 0
DWIDTH 6 0
BBX 7 14 -1 -3
BITMAP
00001500
00001850
00000100
00009B60
00085560
002B0840
00950C10
00D10D00
05D88D20
6D959C10
1E208700
6D00A600
B600A800
00004400
ENDCHAR
STARTCHAR Aacute
ENCODING 193
SWIDTH 552 0
DWIDTH 6 0
BBX 7 14 -1 -3
BITMAP
00000130
00002A30
00000100
00009B60
00085560
002B0840
00950C10
00D10D00
05D88D20
6D959C10
1E208700
6D00A600
B600A800
00004400
ENDCHAR
STARTCHAR Acircumflex
ENCODING 194
SWIDTH 552 0
DWIDTH 6 0
BBX 7 13 -1 -3
BITMAP
00000540
00004580
00009B60
00085560
002B0840
00950C10
00D10D00
05D88D20
6D959C10
1E208700
6D00A600
B600A800
00004400
ENDCHAR
STARTCHAR Atilde
ENCODING 195
SWIDTH 552 0
DWIDTH 6 0
BBX 8 13 -1 -3
BITMAP
00001301
00007793
00009B60
00085560
002B0840
00950C10
00D10D00
05D88D20
6D959C10
1E208700
6D00A600
B600A800
00004400
ENDCHAR
STARTCHAR Adieresis
ENCODING 196
SWIDTH 552 0
DWIDTH 6 0
BBX 8 13 -1 -3
BITMAP
00000211
00004663
00009B60
00085560
002B0840
00950C10
00D10D00
05D88D20
6D959C10
1E208700
6D00A600
B600A800
00004400
ENDCHAR
STARTCHAR Aring
ENCODING 197
SWIDTH 552 0
DWIDTH 6 0
BBX 7 13 -1 -3
BITMAP
00000310
00000B50
00008B60
00085560
002B0840
00950C10
00D10D00
05D88D20
6D959C10
1E208700
6D00A600
B600A800
00004400
ENDCHAR
STARTCHAR AE
ENCODING 198
SWIDTH 869 0
DWIDTH 10 0
BBX 11 12 -1 -3
BITMAP
000001000100
00009B7A9960
000855F603A0
002B08E01B60
00950CE00300
00D10DA83000
05D88EA64000
6D959D000000
1E208A000600
6D00AD107400
B600AEDC5000
000044000000
ENDCHAR
STARTCHAR Ccedilla
ENCODING 199
SWIDTH 548 0
DWIDTH 6 0
BBX 7 14 0 -5
BITMAP
00001000
004B8A00
03D10E10
0D404F00
4D006700
98000000
D5000000
F3000000
E3003000
A7037000
2CC80000
07800000
01B20000
03100000
ENDCHAR
STARTCHAR Egrave
ENCODING 200
SWIDTH 523 0
DWIDTH 6 0
BBX 7 13 -1 -2
BITMAP
00004300
00002A20
00000100
00079880
009901D0
01F10990
02F10300
008A4000
03A65000
1D200000
4D000600
2F305600
06DC7000
ENDCHAR
STARTCHAR Eacute
ENCODING 201
SWIDTH 523 0
DWIDTH 6 0
BBX 7 13 -1 -2
BITMAP
00000230
00003A30
00000100
00079880
009901D0
01F10990
02F10300
008A4000
03A65000
1D200000
4D000600
2F305600
06DC7000
ENDCHAR
STARTCHAR Ecircumflex
ENCODING 202
SWIDTH 523 0
DWIDTH 6 0
BBX 7 13 -1 -2
BITMAP
00000630
00005480
00000100
00079880
009901D0
01F10990
02F10300
008A4000
03A65000
1D200000
4D000600
2F305600
06DC7000
ENDCHAR
STARTCHAR Edieresis
ENCODING 203
SWIDTH 523 0
DWIDTH 6 0
BBX 7 12 -1 -2
BITMAP
00001120
00007380
00079880
009901D0
01F10990
02F10300
008A4000
03A65000
1D200000
4D000600
2F305600
06DC7000
ENDCHAR
STARTCHAR Igrave
ENCODING 204
SWIDTH 537 0
DWIDTH 6 0
BBX 7 13 -1 -2
BITMAP
00002400
00001840
00000000
00008C40
0006A750
000C4A40
000C2E10
00095D00
00049B30
1AB7D620
A701C000
A7075000
1A980000
ENDCHAR
STARTCHAR Iacute
ENCODING 205
SWIDTH 537 0
DWIDTH 6 0
BBX 7 13 -1 -2
BITMAP
00000040
00000A50
00000000
00008C40
0006A750
000C4A40
000C2E10
00095D00
00049B30
1AB7D620
A701C000
A7075000
1A980000
ENDCHAR
STARTCHAR Icircumflex
ENCODING 206
SWIDTH 537 0
DWIDTH 6 0
BBX 8 12 -1 -2
BITMAP
00000370
00002763
00008C40
0006A750
000C4A40
000C2E10
00095D00
00049B30
1AB7D620
A701C000
A7075000
1A980000
ENDCHAR
STARTCHAR Idieresis
ENCODING 207
SWIDTH 537 0
DWIDTH 6 0
BBX 8 12 -1 -2
BITMAP
00000211
00004563
00008C40
0006A750
000C4A40
000C2E10
00095D00
00049B30
1AB7D620
A701C000
A7075000
1A980000
ENDCHAR
STARTCHAR Eth
ENCODING 208
SWIDTH 632 0
DWIDTH 7 0
BBX 8 11 -1 -2
BITMAP
00001000
007DCC30
005503D1
004C00A6
00790098
07CB40A7
25E520D4
01D004D0
05900C50
0A509800
0ABB5000
ENDCHAR
STARTCHAR Ntilde
ENCODING 209
SWIDTH 541 0
DWIDTH 6 0
BBX 8 12 -1 -2
BITMAP
00003110
00046871
006800CB
00BA0599
00CB0AA6
038B2E50
075A0D00
0B2B2B00
0E0B5800
3C0AA500
6C08F100
5B03B000
ENDCHAR
STARTCHAR Ograve
ENCODING 210
SWIDTH 567 0
DWIDTH 6 0
BBX 6 13 0 -2
BITMAP
000430
0002A2
000200
009DC3
05A168
0D205A
4B004A
970069
C40097
D200C3
D203C0
A40B40
3BA600
ENDCHAR
STARTCHAR Oacute
ENCODING 211
SWIDTH 567 0
DWIDTH 6 0
BBX 6 13 0 -2
BITMAP
000031
000591
000200
009DC3
05A168
0D205A
4B004A
970069
C40097
D200C3
D203C0
A40B40
3BA600
ENDCHAR
STARTCHAR Ocircumflex
ENCODING 212
SWIDTH 567 0
DWIDTH 6 0
BBX 6 13 0 -2
BITMAP
000181
001755
000200
009DC3
05A168
0D205A
4B004A
970069
C40097
D200C3
D203C0
A40B40
3BA600
ENDCHAR
STARTCHAR Otilde
ENCODING 213
SWIDTH 567 0
DWIDTH 6 0
BBX 6 12 0 -2
BITMAP
000311
004996
009DC3
05A168
0D205A
4B004A
970069
C40097
D200C3
D203C0
A40B40
3BA600
ENDCHAR
STARTCHAR Odieresis
ENCODING 214
SWIDTH 567 0
DWIDTH 6 0
BBX 6 12 0 -2
BITMAP
000202
001A46
009DC3
05A168
0D205A
4B004A
970069
C40097
D200C3
D203C0
A40B40
3BA600
ENDCHAR
STARTCHAR multiply
ENCODING 215
SWIDTH 281 0
DWIDTH 3 0
BBX 5 5 -1 1
BITMAP
053430
02BA00
02E100
1A9300
010100
ENDCHAR
STARTCHAR Oslash
ENCODING 216
SWIDTH 597 0
DWIDTH 7 0
BBX 8 12 -1 -3
BITMAP
00002022
0007ECE2
003C18A0
00B41EC0
02D098C0
0792B4B0
096B3690
0B9A0A50
0BE31D10
09A09600
1DCA7000
13000000
ENDCHAR
STARTCHAR Ugrave
ENCODING 217
SWIDTH 574 0
DWIDTH 6 0
BBX 7 12 0 -2
BITMAP
00043000
0002A200
03C10890
08A00D40
0C502E00
1E106A00
5B009600
8700D200
B302E000
D207C000
D32CB000
7DA2B000
ENDCHAR
STARTCHAR Uacute
ENCODING 218
SWIDTH 574 0
DWIDTH 6 0
BBX 7 12 0 -2
BITMAP
00000400
0000A500
03C10890
08A00D40
0C502E00
1E106A00
5B009600
8700D200
B302E000
D207C000
D32CB000
7DA2B000
ENDCHAR
STARTCHAR Ucircumflex
ENCODING 219
SWIDTH 574 0
DWIDTH 6 0
BBX 7 12 0 -2
BITMAP
00006300
00054800
03C10890
08A00D40
0C502E00
1E106A00
5B009600
8700D200
B302E000
D207C000
D32CB000
7DA2B000
ENDCHAR
STARTCHAR Udieresis
ENCODING 220
SWIDTH 574 0
DWIDTH 6 0
BBX 7 12 0 -2
BITMAP
00021200
00073800
03C10890
08A00D40
0C502E00
1E106A00
5B009600
8700D200
B302E000
D207C000
D32CB000
7DA2B000
ENDCHAR
STARTCHAR Yacute
ENCODING 221
SWIDTH 532 0
DWIDTH 6 0
BBX 7 12 0 -2
BITMAP
00003200
0004A200
07A00E20
0C403D00
1E006900
4A00B500
7701E100
9509C000
6DA78000
02084000
623B0000
AEB20000
ENDCHAR
STARTCHAR Thorn
ENCODING 222
SWIDTH 569 0
DWIDTH 6 0
BBX 7 10 -1 -2
BITMAP
003B0000
00782100
02CA6C50
08F103C0
03B003D0
06800880
0A405C10
0E7A8100
2E200000
5A000000
ENDCHAR
STARTCHAR germandbls
ENCODING 223
SWIDTH 495 0
DWIDTH 5 0
BBX 7 14 -2 -6
BITMAP
00001300
0003BA50
000B2950
002B1B00
00672900
00A20B30
06C023B0
03A8B770
07494400
0B165000
0B0A2000
395A0000
4FB10000
02000000
ENDCHAR
STARTCHAR agrave
ENCODING 224
SWIDTH 435 0
DWIDTH 5 0
BBX 7 8 -1 -1
BITMAP
00430000
00292000
00270000
02A94000
0B275040
1D0C2620
1EA99400
01001000
ENDCHAR
STARTCHAR aacute
ENCODING 225
SWIDTH 435 0
DWIDTH 5 0
BBX 7 8 -1 -1
BITMAP
00023000
003A3000
00270000
02A94000
0B275040
1D0C2620
1EA99400
01001000
ENDCHAR
STARTCHAR acircumflex
ENCODING 226
SWIDTH 435 0
DWIDTH 5 0
BBX 7 8 -1 -1
BITMAP
00073000
00648000
00270000
02A94000
0B275040
1D0C2620
1EA99400
01001000
ENDCHAR
STARTCHAR atilde
ENCODING 227
SWIDTH 435 0
DWIDTH 5 0
BBX 7 8 -1 -1
BITMAP
00221100
01879100
00270000
02A94000
0B275040
1D0C2620
1EA99400
01001000
ENDCHAR
STARTCHAR adieresis
ENCODING 228
SWIDTH 435 0
DWIDTH 5 0
BBX 7 8 -1 -1
BITMAP
00112000
00538100
00270000
02A94000
0B275040
1D0C2620
1EA99400
01001000
ENDCHAR
STARTCHAR aring
ENCODING 229
SWIDTH 435 0
DWIDTH 5 0
BBX 7 8 -1 -1
BITMAP
00050000
003A1000
00270000
02A94000
0B275040
1D0C2620
1EA99400
01001000
ENDCHAR
STARTCHAR ae
ENCODING 230
SWIDTH 594 0
DWIDTH 7 0
BBX 9 6 -1 -1
BITMAP
0027163000
02AAB77000
0B28A91120
1D0B901800
1EA7B77000
0100320000
ENDCHAR
STARTCHAR ccedilla
ENCODING 231
SWIDTH 363 0
DWIDTH 4 0
BBX 6 8 -1 -3
BITMAP
005600
069C10
0D0404
1C0063
0C7840
03B100
019500
025000
ENDCHAR
STARTCHAR egrave
ENCODING 232
SWIDTH 372 0
DWIDTH 4 0
BBX 5 8 0 -1
BITMAP
042000
03A100
036000
39B100
C76040
E30540
B88400
130000
ENDCHAR
STARTCHAR eacute
ENCODING 233
SWIDTH 372 0
DWIDTH 4 0
BBX 5 8 0 -1
BITMAP
002200
04A200
036000
39B100
C76040
E30540
B88400
130000
ENDCHAR
STARTCHAR ecircumflex
ENCODING 234
SWIDTH 372 0
DWIDTH 4 0
BBX 5 8 0 -1
BITMAP
007200
074700
036000
39B100
C76040
E30540
B88400
130000
ENDCHAR
STARTCHAR edieresis
ENCODING 235
SWIDTH 372 0
DWIDTH 4 0
BBX 5 8 0 -1
BITMAP
020200
083700
036000
39B100
C76040
E30540
B88400
130000
ENDCHAR
STARTCHAR igrave
ENCODING 236
SWIDTH 274 0
DWIDTH 3 0
BBX 4 8 0 -1
BITMAP
5100
3A00
0300
5900
A405
B163
9A40
0100
ENDCHAR
STARTCHAR iacute
ENCODING 237
SWIDTH 274 0
DWIDTH 3 0
BBX 4 8 0 -1
BITMAP
0041
0691
0300
5900
A405
B163
9A40
0100
ENDCHAR
STARTCHAR icircumflex
ENCODING 238
SWIDTH 274 0
DWIDTH 3 0
BBX 4 8 0 -1
BITMAP
0640
5480
0300
5900
A405
B163
9A40
0100
ENDCHAR
STARTCHAR idieresis
ENCODING 239
SWIDTH 274 0
DWIDTH 3 0
BBX 4 8 0 -1
BITMAP
1120
6391
0300
5900
A405
B163
9A40
0100
ENDCHAR
STARTCHAR eth
ENCODING 240
SWIDTH 393 0
DWIDTH 4 0
BBX 7 9 -1 -1
BITMAP
00010000
00073200
007CB300
00557000
069A7120
0D88A600
1A5E3000
0B880000
01200000
ENDCHAR
STARTCHAR ntilde
ENCODING 241
SWIDTH 461 0
DWIDTH 5 0
BBX 7 8 -1 -1
BITMAP
00220100
00879200
00122000
05CAB000
0973A040
0C177440
1C09A600
01012000
ENDCHAR
STARTCHAR ograve
ENCODING 242
SWIDTH 393 0
DWIDTH 4 0
BBX 7 8 -1 -1
BITMAP
00420000
003A1000
00420000
069A2120
0D889600
1A5E3000
0B880000
01200000
ENDCHAR
STARTCHAR oacute
ENCODING 243
SWIDTH 393 0
DWIDTH 4 0
BBX 7 8 -1 -1
BITMAP
00022000
004A2000
00420000
069A2120
0D889600
1A5E3000
0B880000
01200000
ENDCHAR
STARTCHAR ocircumflex
ENCODING 244
SWIDTH 393 0
DWIDTH 4 0
BBX 7 8 -1 -1
BITMAP
00270000
01763000
00420000
069A2120
0D889600
1A5E3000
0B880000
01200000
ENDCHAR
STARTCHAR otilde
ENCODING 245
SWIDTH 393 0
DWIDTH 4 0
BBX 7 8 -1 -1
BITMAP
00311000
04787000
00420000
069A2120
0D889600
1A5E3000
0B880000
01200000
ENDCHAR
STARTCHAR odieresis
ENCODING 246
SWIDTH 393 0
DWIDTH 4 0
BBX 7 8 -1 -1
BITMAP
00202000
00836000
00420000
069A2120
0D889600
1A5E3000
0B880000
01200000
ENDCHAR
STARTCHAR divide
ENCODING 247
SWIDTH 350 0
DWIDTH 4 0
BBX 4 4 0 2
BITMAP
0270
4674
8664
0910
ENDCHAR
STARTCHAR oslash
ENCODING 248
SWIDTH 406 0
DWIDTH 4 0
BBX 7 6 -1 -1
BITMAP
00348000
04B95030
0B96A700
0B4D5000
0C8A0000
47200000
ENDCHAR
STARTCHAR ugrave
ENCODING 249
SWIDTH 468 0
DWIDTH 5 0
BBX 6 8 0 -1
BITMAP
043000
029200
010100
771D00
C26A04
D08535
C9AB70
010100
ENDCHAR
STARTCHAR uacute
ENCODING 250
SWIDTH 468 0
DWIDTH 5 0
BBX 6 8 0 -1
BITMAP
001400
01A400
010100
771D00
C26A04
D08535
C9AB70
010100
ENDCHAR
STARTCHAR ucircumflex
ENCODING 251
SWIDTH 468 0
DWIDTH 5 0
BBX 6 8 0 -1
BITMAP
006400
054800
010100
771D00
C26A04
D08535
C9AB70
010100
ENDCHAR
STARTCHAR udieresis
ENCODING 252
SWIDTH 468 0
DWIDTH 5 0
BBX 6 8 0 -1
BITMAP
011200
063810
010100
771D00
C26A04
D08535
C9AB70
010100
ENDCHAR
STARTCHAR yacute
ENCODING 253
SWIDTH 406 0
DWIDTH 4 0
BBX 5 12 -1 -5
BITMAP
000040
000A60
011020
0A61E0
0D14A0
1C0C50
1DAD10
022C00
003A00
007600
00B400
007100
ENDCHAR
STARTCHAR thorn
ENCODING 254
SWIDTH 451 0
DWIDTH 5 0
BBX 8 13 -2 -5
BITMAP
00044000
00097000
000C2000
001D1200
004C9C00
00780B03
00B26753
00EFE940
04942100
07600000
0B300000
0E000000
17000000
ENDCHAR
STARTCHAR ydieresis
ENCODING 255
SWIDTH 406 0
DWIDTH 4 0
BBX 5 12 -1 -5
BITMAP
002020
008370
011020
0A61E0
0D14A0
1C0C50
1DAD10
022C00
003A00
007600
00B400
007100
ENDCHAR
STARTCHAR dotlessi
ENCODING 305
SWIDTH 274 0
DWIDTH 3 0
BBX 4 6 0 -1
BITMAP
0300
5900
A405
B163
9A40
0100
ENDCHAR
STARTCHAR Lslash
ENCODING 321
SWIDTH 492 0
DWIDTH 5 0
BBX 7 11 -1 -3
BITMAP
00004DB0
0000D4B0
0003DB40
045AE500
015B5000
016DC300
048C0000
00850000
BDE20100
984CCB00
00002000
ENDCHAR
STARTCHAR lslash
ENCODING 322
SWIDTH 218 0
DWIDTH 2 0
BBX 4 9 -1 -1
BITMAP
0053
00B5
00D1
04E8
8CA2
0950
0D10
1C00
0200
ENDCHAR
STARTCHAR OE
ENCODING 338
SWIDTH 918 0
DWIDTH 10 0
BBX 11 11 0 -2
BITMAP
000200001000
009DC34A8B10
05A16BD10A30
0D205F704D10
4B004F701200
97006CC51000
C4009D761000
D200C7000000
D203F3003400
A40BE8019000
3BA63CDA1000
ENDCHAR
STARTCHAR oe
ENCODING 339
SWIDTH 583 0
DWIDTH 6 0
BBX 9 6 -1 -1
BITMAP
0042063000
069AA78000
0DA8AA1130
1A4E911800
0B8BB78000
0120220000
ENDCHAR
STARTCHAR Scaron
ENCODING 352
SWIDTH 474 0
DWIDTH 5 0
BBX 8 14 -1 -3
BITMAP
00004251
00002A30
00002100
003C8C20
01D20860
03D00C30
00E40100
005E2000
0008A000
0001D000
3900C000
7B057000
1DBA0000
00100000
ENDCHAR
STARTCHAR scaron
ENCODING 353
SWIDTH 351 0
DWIDTH 4 0
BBX 4 8 0 -1
BITMAP
0615
0591
0860
1F30
7680
31D0
9980
1400
ENDCHAR
STARTCHAR Ydieresis
ENCODING 376
SWIDTH 532 0
DWIDTH 6 0
BBX 7 12 0 -2
BITMAP
00020200
00184600
07A00E20
0C403D00
1E006900
4A00B500
7701E100
9509C000
6DA78000
02084000
623B0000
AEB20000
ENDCHAR
STARTCHAR Zcaron
ENCODING 381
SWIDTH 455 0
DWIDTH 5 0
BBX 7 12 -1 -2
BITMAP
00006240
00007800
00CEDD50
01300B50
00005C00
0002D200
001C5000
00A70000
06A00000
2C100000
A6564000
BBABA000
ENDCHAR
STARTCHAR zcaron
ENCODING 382
SWIDTH 349 0
DWIDTH 4 0
BBX 7 12 -2 -5
BITMAP
00051500
0004A200
00255000
00A6D100
00047000
003D3340
0086D500
006A9000
08584000
391C0000
67A50000
2B700000
ENDCHAR
STARTCHAR circumflex
ENCODING 710
SWIDTH 567 0
DWIDTH 6 0
BBX 4 2 2 6
BITMAP
0450
3581
ENDCHAR
STARTCHAR caron
ENCODING 711
SWIDTH 567 0
DWIDTH 6 0
BBX 4 2 2 6
BITMAP
4251
2A30
ENDCHAR
STARTCHAR breve
ENCODING 728
SWIDTH 567 0
DWIDTH 6 0
BBX 4 3 2 5
BITMAP
3021
7A90
0100
ENDCHAR
STARTCHAR dotaccent
ENCODING 729
SWIDTH 567 0
DWIDTH 6 0
BBX 2 2 3 6
BITMAP
11
72
ENDCHAR
STARTCHAR ring
ENCODING 730
SWIDTH 567 0
DWIDTH 6 0
BBX 2 2 3 6
BITMAP
32
95
ENDCHAR
STARTCHAR ogonek
ENCODING 731
SWIDTH 567 0
DWIDTH 6 0
BBX 3 3 2 -2
BITMAP
2300
8860
1300
ENDCHAR
STARTCHAR tilde
ENCODING 732
SWIDTH 567 0
DWIDTH 6 0
BBX 4 2 2 6
BITMAP
1301
7793
ENDCHAR
STARTCHAR hungarumlaut
ENCODING 733
SWIDTH 567 0
DWIDTH 6 0
BBX 4 2 2 6
BITMAP
0413
A7A3
ENDCHAR
STARTCHAR endash
ENCODING 8211
SWIDTH 353 0
DWIDTH 4 0
BBX 5 1 -1 3
BITMAP
1BBB70
ENDCHAR
STARTCHAR emdash
ENCODING 8212
SWIDTH 508 0
DWIDTH 6 0
BBX 7 1 -1 3
BITMAP
1CCCCC40
ENDCHAR
STARTCHAR quoteleft
ENCODING 8216
SWIDTH 155 0
DWIDTH 2 0
BBX 2 3 0 5
BITMAP
03
47
68
ENDCHAR
STARTCHAR quoteright
ENCODING 8217
SWIDTH 154 0
DWIDTH 2 0
BBX 2 3 0 5
BITMAP
05
3D
26
ENDCHAR
STARTCHAR quotesinglbase
ENCODING 8218
SWIDTH 188 0
DWIDTH 2 0
BBX 2 4 -1 -2
BITMAP
01
4D
18
10
ENDCHAR
STARTCHAR quotedblleft
ENCODING 8220
SWIDTH 289 0
DWIDTH 3 0
BBX 4 3 0 5
BITMAP
0321
47A1
68D2
ENDCHAR
STARTCHAR quotedblright
ENCODING 8221
SWIDTH 288 0
DWIDTH 3 0
BBX 4 3 0 5
BITMAP
1642
3DA5
2560
ENDCHAR
STARTCHAR quotedblbase
ENCODING 8222
SWIDTH 323 0
DWIDTH 4 0
BBX 4 4 -1 -2
BITMAP
0110
4DC5
1881
1020
ENDCHAR
STARTCHAR bullet
ENCODING 8226
SWIDTH 180 0
DWIDTH 2 0
BBX 3 4 -1 1
BITMAP
0220
0EA0
1F60
0100
ENDCHAR
STARTCHAR ellipsis
ENCODING 8230
SWIDTH 614 0
DWIDTH 7 0
BBX 7 2 -1 -1
BITMAP
2B1B3950
12030300
ENDCHAR
STARTCHAR perthousand
ENCODING 8240
SWIDTH 851 0
DWIDTH 9 0
BBX 9 9 0 -1
BITMAP
09A10A2000
6573850000
82A4800000
4A6A000000
0094841840
048A2A93A0
1B1A1AA0A0
A50BA4AA50
2001100100
ENDCHAR
STARTCHAR guilsinglleft
ENCODING 8249
SWIDTH 202 0
DWIDTH 2 0
BBX 3 6 -1 -1
BITMAP
0020
0380
2B00
2A00
0820
0010
ENDCHAR
STARTCHAR guilsinglright
ENCODING 8250
SWIDTH 202 0
DWIDTH 2 0
BBX 3 6 -1 -1
BITMAP
0200
0910
0580
0850
5600
1000
ENDCHAR
STARTCHAR fraction
ENCODING 8260
SWIDTH 600 0
DWIDTH 7 0
BBX 7 9 0 -1
BITMAP
00000750
00003900
0001B100
00093000
00470000
01B00000
0A300000
59000000
10000000
ENDCHAR
STARTCHAR Euro
ENCODING 8364
SWIDTH 334 0
DWIDTH 4 0
BBX 6 8 -1 0
BITMAP
000110
004991
01C010
1BC810
4D9600
0A0000
064810
003100
ENDCHAR
STARTCHAR minus
ENCODING 8722
SWIDTH 353 0
DWIDTH 4 0
BBX 5 1 -1 3
BITMAP
1BBB70
ENDCHAR
STARTCHAR fi
ENCODING 64257
SWIDTH 549 0
DWIDTH 6 0
BBX 8 14 -1 -6
BITMAP
00470000
00790760
00860100
00B10300
01B06A00
08B7B505
0E20B164
0CB19A50
38570100
752A0000
A1670000
C2C10000
ED300000
10000000
ENDCHAR
STARTCHAR fl
ENCODING 64258
SWIDTH 516 0
DWIDTH 6 0
BBX 7 14 -1 -6
BITMAP
00470350
00790790
00860A50
00B10D20
01B03D00
08B78900
0E209500
0CB1C100
38572000
752A0000
A1670000
C2C10000
ED300000
10000000
ENDCHAR
STARTCHAR .notdef
ENCODING -1
SWIDTH 280 0
DWIDTH 3 0
BBX 1 1 0 0
BITMAP
00
ENDCHAR
ENDFONT
